<?xml version="1.0" encoding="UTF-8"?>
<svg width="436px" height="112px" viewBox="0 0 436 112" version="1.1" xmlns="http://www.w3.org/2000/svg" xmlns:xlink="http://www.w3.org/1999/xlink" xmlns:sketch="http://www.bohemiancoding.com/sketch/ns">
    <!-- Generator: Sketch 3.2.2 (9983) - http://www.bohemiancoding.com/sketch -->
    <title>Oval + Shape + PROOF</title>
    <desc>Created with Sketch.</desc>
    <defs></defs>
    <g id="Page-1" stroke="none" stroke-width="1" fill="none" fill-rule="evenodd" sketch:type="MSPage">
        <g id="Oval-+-Shape-+-PROOF" sketch:type="MSLayerGroup" fill="#FFFFFF">
            <circle id="Oval" sketch:type="MSShapeGroup" cx="87.9999999" cy="24" r="24"></circle>
            <path d="M50,112 C10.7480468,112 0,101.253907 0,62 C0,22.7460936 10.7480468,12 50,12 C52.6972656,12 55.2226564,12.0625 57.6464844,12.1640624 C58.7499696,12.2109376 59.607422,13.1445312 59.5605468,14.25 C59.5156248,15.3554688 58.5371092,16.2265624 57.4785156,16.1640624 C55.1054688,16.0625 52.638672,16 50,16 C13.0273436,16 4,25.0273436 4,62 C4,98.9726562 13.0273436,108 50,108 C86.9726566,108 95.9999996,98.9726562 95.9999996,62 C95.9999996,59.3632812 95.9375002,56.8945312 95.8359377,54.5234376 C95.7890623,53.4218752 96.6445312,52.4882812 97.7480465,52.4375 C98.8535158,52.4570312 99.7851559,53.25 99.8320314,54.3515624 C99.9375001,56.7773436 100,59.3007812 100,62 C100,101.253907 89.2519531,112 50,112 L50,112 L50,112 Z" id="Shape" sketch:type="MSShapeGroup"></path>
            <path d="M181.249955,50.2593031 C181.249955,53.5236489 180.644481,56.2746087 179.433514,58.512265 C178.222547,60.7499214 176.590399,62.5531822 174.53702,63.9221014 C172.483641,65.2910206 170.114393,66.2913696 167.429206,66.9231785 C164.744018,67.5549873 161.953571,67.870887 159.05778,67.870887 L152.344845,67.870887 L152.344845,88.9574023 L138.839998,88.9574023 L138.839998,33.0425977 L159.373683,33.0425977 C162.427426,33.0425977 165.283686,33.3453349 167.942548,33.9508184 C170.60141,34.5563019 172.918008,35.5303259 174.892411,36.8729198 C176.866813,38.2155136 178.419987,39.9792869 179.551978,42.1642925 C180.683968,44.3492982 181.249955,47.047608 181.249955,50.2593031 L181.249955,50.2593031 L181.249955,50.2593031 Z M167.745109,50.3382788 C167.745109,49.0220103 167.481859,47.9426864 166.955351,47.1002746 C166.428844,46.2578628 165.71807,45.5997384 164.823007,45.1258817 C163.927945,44.6520251 162.914433,44.3361254 161.782442,44.1781732 C160.650451,44.020221 159.47899,43.9412461 158.268023,43.9412461 L152.344845,43.9412461 L152.344845,57.1301901 L158.031096,57.1301901 C159.294714,57.1301901 160.505662,57.0248902 161.663979,56.8142872 C162.822295,56.6036843 163.862131,56.2351346 164.783519,55.7086272 C165.704907,55.1821199 166.428844,54.484508 166.955351,53.6157709 C167.481859,52.7470337 167.745109,51.6545472 167.745109,50.3382788 L167.745109,50.3382788 L167.745109,50.3382788 Z M224.844549,88.9574023 L212.761265,66.765227 L208.180674,66.765227 L208.180674,88.9574023 L194.912754,88.9574023 L194.912754,33.0425977 L216.236197,33.0425977 C218.921384,33.0425977 221.540719,33.3190099 224.09428,33.8718427 C226.647841,34.4246754 228.938114,35.359212 230.965167,36.6754805 C232.992221,37.9917489 234.611207,39.7291973 235.822174,41.8878775 C237.033141,44.0465578 237.638615,46.7317052 237.638615,49.9434002 C237.638615,53.7342534 236.611941,56.9195753 234.558562,59.4994615 C232.505183,62.0793476 229.662086,63.9220958 226.029185,65.0277613 L240.639692,88.9574023 L224.844549,88.9574023 L224.844549,88.9574023 Z M224.291719,50.1803274 C224.291719,48.8640589 224.015307,47.7978974 223.462475,46.981811 C222.909642,46.1657246 222.198867,45.5339252 221.33013,45.0863939 C220.461393,44.6388626 219.487369,44.3361254 218.408029,44.1781732 C217.328689,44.020221 216.288852,43.9412461 215.288488,43.9412461 L208.101698,43.9412461 L208.101698,56.9722387 L214.498731,56.9722387 C215.604397,56.9722387 216.736371,56.8801012 217.894687,56.6958237 C219.053003,56.5115461 220.106002,56.1824839 221.053715,55.7086272 C222.001429,55.2347706 222.778015,54.5503213 223.383499,53.6552587 C223.988982,52.7601962 224.291719,51.6018973 224.291719,50.1803274 L224.291719,50.1803274 L224.291719,50.1803274 Z M311.086028,60.7630729 C311.086028,65.1857349 310.322604,69.2266184 308.795733,72.8858448 C307.268861,76.5450711 305.149701,79.677743 302.438188,82.2839546 C299.726675,84.8901661 296.501865,86.9040267 292.763663,88.3255966 C289.025461,89.7471665 284.971415,90.4579408 280.601403,90.4579408 C276.231392,90.4579408 272.190508,89.7471665 268.478631,88.3255966 C264.766754,86.9040267 261.555107,84.8901661 258.843594,82.2839546 C256.132081,79.677743 254.012921,76.5450711 252.48605,72.8858448 C250.959178,69.2266184 250.195754,65.1857349 250.195754,60.7630729 C250.195754,56.2877601 250.959178,52.2468765 252.48605,48.640301 C254.012921,45.0337254 256.132081,41.9668659 258.843594,39.4396304 C261.555107,36.912395 264.766754,34.9643469 268.478631,33.5954277 C272.190508,32.2265085 276.231392,31.5420592 280.601403,31.5420592 C284.971415,31.5420592 289.025461,32.2265085 292.763663,33.5954277 C296.501865,34.9643469 299.726675,36.912395 302.438188,39.4396304 C305.149701,41.9668659 307.268861,45.0337254 308.795733,48.640301 C310.322604,52.2468765 311.086028,56.2877601 311.086028,60.7630729 L311.086028,60.7630729 L311.086028,60.7630729 Z M296.633473,60.7630729 C296.633473,58.3411389 296.238598,56.0771911 295.448837,53.9711616 C294.659076,51.865132 293.56659,50.0618713 292.171345,48.5613252 C290.776101,47.0607792 289.091302,45.8761554 287.1169,45.0074182 C285.142497,44.138681 282.970687,43.7043189 280.601403,43.7043189 C278.23212,43.7043189 276.073472,44.138681 274.125395,45.0074182 C272.177318,45.8761554 270.492519,47.0607792 269.070949,48.5613252 C267.649379,50.0618713 266.556893,51.865132 265.793457,53.9711616 C265.030021,56.0771911 264.648309,58.3411389 264.648309,60.7630729 C264.648309,63.2903083 265.043184,65.6200685 265.832945,67.7524234 C266.622706,69.8847783 267.715193,71.7143641 269.110437,73.2412355 C270.505682,74.7681069 272.177318,75.9658932 274.125395,76.8346304 C276.073472,77.7033676 278.23212,78.1377297 280.601403,78.1377297 C282.970687,78.1377297 285.129334,77.7033676 287.077412,76.8346304 C289.025489,75.9658932 290.710287,74.7681069 292.131857,73.2412355 C293.553427,71.7143641 294.659076,69.8847783 295.448837,67.7524234 C296.238598,65.6200685 296.633473,63.2903083 296.633473,60.7630729 L296.633473,60.7630729 L296.633473,60.7630729 Z M383.82266,60.7630729 C383.82266,65.1857349 383.059236,69.2266184 381.532365,72.8858448 C380.005493,76.5450711 377.886333,79.677743 375.17482,82.2839546 C372.463307,84.8901661 369.238498,86.9040267 365.500295,88.3255966 C361.762093,89.7471665 357.708047,90.4579408 353.338035,90.4579408 C348.968024,90.4579408 344.92714,89.7471665 341.215263,88.3255966 C337.503386,86.9040267 334.29174,84.8901661 331.580226,82.2839546 C328.868713,79.677743 326.749553,76.5450711 325.222682,72.8858448 C323.69581,69.2266184 322.932386,65.1857349 322.932386,60.7630729 C322.932386,56.2877601 323.69581,52.2468765 325.222682,48.640301 C326.749553,45.0337254 328.868713,41.9668659 331.580226,39.4396304 C334.29174,36.912395 337.503386,34.9643469 341.215263,33.5954277 C344.92714,32.2265085 348.968024,31.5420592 353.338035,31.5420592 C357.708047,31.5420592 361.762093,32.2265085 365.500295,33.5954277 C369.238498,34.9643469 372.463307,36.912395 375.17482,39.4396304 C377.886333,41.9668659 380.005493,45.0337254 381.532365,48.640301 C383.059236,52.2468765 383.82266,56.2877601 383.82266,60.7630729 L383.82266,60.7630729 L383.82266,60.7630729 Z M369.370105,60.7630729 C369.370105,58.3411389 368.97523,56.0771911 368.185469,53.9711616 C367.395708,51.865132 366.303222,50.0618713 364.907977,48.5613252 C363.512733,47.0607792 361.827934,45.8761554 359.853532,45.0074182 C357.879129,44.138681 355.707319,43.7043189 353.338035,43.7043189 C350.968752,43.7043189 348.810104,44.138681 346.862027,45.0074182 C344.91395,45.8761554 343.229151,47.0607792 341.807581,48.5613252 C340.386011,50.0618713 339.293525,51.865132 338.530089,53.9711616 C337.766654,56.0771911 337.384941,58.3411389 337.384941,60.7630729 C337.384941,63.2903083 337.779816,65.6200685 338.569577,67.7524234 C339.359338,69.8847783 340.451825,71.7143641 341.847069,73.2412355 C343.242314,74.7681069 344.91395,75.9658932 346.862027,76.8346304 C348.810104,77.7033676 350.968752,78.1377297 353.338035,78.1377297 C355.707319,78.1377297 357.865966,77.7033676 359.814044,76.8346304 C361.762121,75.9658932 363.446919,74.7681069 364.868489,73.2412355 C366.290059,71.7143641 367.395708,69.8847783 368.185469,67.7524234 C368.97523,65.6200685 369.370105,63.2903083 369.370105,60.7630729 L369.370105,60.7630729 L369.370105,60.7630729 Z M411.622112,44.5730518 L411.622112,56.1035058 L433.261457,56.1035058 L433.261457,67.2390813 L411.622112,67.2390813 L411.622112,88.9574023 L398.275217,88.9574023 L398.275217,33.0425977 L435.077899,33.0425977 L435.077899,44.5730518 L411.622112,44.5730518 L411.622112,44.5730518 Z" id="PROOF" sketch:type="MSShapeGroup"></path>
        </g>
    </g>
</svg>