<?xml version="1.0" encoding="UTF-8"?>
<svg width="270px" height="44px" viewBox="0 0 270 44" version="1.1" xmlns="http://www.w3.org/2000/svg" xmlns:xlink="http://www.w3.org/1999/xlink">
    <!-- Generator: Sketch 45.2 (43514) - http://www.bohemiancoding.com/sketch -->
    <title>Group</title>
    <desc>Created with Sketch.</desc>
    <defs/>
    <g id="Page-1" stroke="none" stroke-width="1" fill="none" fill-rule="evenodd">
        <g id="Group" fill-rule="nonzero" fill="#F9C319">
            <path d="M23.897,0.99 L30.418,14.201 L44.995,16.32 C45.815,16.439 46.143,17.447 45.549,18.026 L35,28.307 L37.49,42.827 C37.63,43.644 36.773,44.267 36.039,43.881 L23.001,37.027 L9.961,43.883 C9.227,44.27 8.37,43.647 8.51,42.83 L11,28.307 L0.451,18.026 C-0.143,17.448 0.185,16.439 1.005,16.32 L15.582,14.201 L22.103,0.99 C22.47,0.247 23.53,0.247 23.897,0.99 Z" id="Shape"/>
            <path d="M79.897,0.99 L86.418,14.201 L100.995,16.32 C101.815,16.439 102.143,17.447 101.549,18.026 L91,28.307 L93.49,42.827 C93.63,43.644 92.773,44.267 92.039,43.881 L79.001,37.027 L65.961,43.883 C65.227,44.27 64.37,43.647 64.51,42.83 L67,28.307 L56.451,18.026 C55.857,17.448 56.185,16.439 57.005,16.32 L71.582,14.201 L78.103,0.99 C78.47,0.247 79.53,0.247 79.897,0.99 Z" id="Shape"/>
            <path d="M135.897,0.99 L142.418,14.201 L156.995,16.32 C157.815,16.439 158.143,17.447 157.549,18.026 L147,28.307 L149.49,42.827 C149.63,43.644 148.773,44.267 148.039,43.881 L135.001,37.027 L121.961,43.883 C121.227,44.27 120.37,43.647 120.51,42.83 L123,28.307 L112.451,18.026 C111.857,17.448 112.185,16.439 113.005,16.32 L127.582,14.201 L134.103,0.99 C134.47,0.247 135.53,0.247 135.897,0.99 Z" id="Shape"/>
            <path d="M191.897,0.99 L198.418,14.201 L212.995,16.32 C213.815,16.439 214.143,17.447 213.549,18.026 L203,28.307 L205.49,42.827 C205.63,43.644 204.773,44.267 204.039,43.881 L191.001,37.027 L177.961,43.883 C177.227,44.27 176.37,43.647 176.51,42.83 L179,28.307 L168.451,18.026 C167.857,17.448 168.185,16.439 169.005,16.32 L183.582,14.201 L190.103,0.99 C190.47,0.247 191.53,0.247 191.897,0.99 Z" id="Shape"/>
            <path d="M247.897,0.99 L254.418,14.201 L268.995,16.32 C269.815,16.439 270.143,17.447 269.549,18.026 L259,28.307 L261.49,42.827 C261.63,43.644 260.773,44.267 260.039,43.881 L247.001,37.027 L233.961,43.883 C233.227,44.27 232.37,43.647 232.51,42.83 L235,28.307 L224.451,18.026 C223.857,17.448 224.185,16.439 225.005,16.32 L239.582,14.201 L246.103,0.99 C246.47,0.247 247.53,0.247 247.897,0.99 Z" id="Shape"/>
        </g>
    </g>
</svg>